<?xml version="1.0" encoding="UTF-8" standalone="no"?>
<svg
   width="128"
   height="128"
   version="1.0"
   id="svg38"
   sodipodi:docname="installer-dakotaraptor.svg"
   inkscape:version="1.4.3 (0d15f75042, 2025-12-25)"
   xmlns:inkscape="http://www.inkscape.org/namespaces/inkscape"
   xmlns:sodipodi="http://sodipodi.sourceforge.net/DTD/sodipodi-0.dtd"
   xmlns:xlink="http://www.w3.org/1999/xlink"
   xmlns="http://www.w3.org/2000/svg"
   xmlns:svg="http://www.w3.org/2000/svg"
   xmlns:rdf="http://www.w3.org/1999/02/22-rdf-syntax-ns#"
   xmlns:cc="http://creativecommons.org/ns#"
   xmlns:dc="http://purl.org/dc/elements/1.1/">
  <metadata
     id="metadata42">
    <rdf:RDF>
      <cc:Work
         rdf:about="">
        <dc:format>image/svg+xml</dc:format>
        <dc:type
           rdf:resource="http://purl.org/dc/dcmitype/StillImage" />
      </cc:Work>
    </rdf:RDF>
  </metadata>
  <sodipodi:namedview
     pagecolor="#ffffff"
     bordercolor="#666666"
     borderopacity="1"
     objecttolerance="10"
     gridtolerance="10"
     guidetolerance="10"
     inkscape:pageopacity="0"
     inkscape:pageshadow="2"
     inkscape:window-width="2560"
     inkscape:window-height="1368"
     id="namedview40"
     showgrid="false"
     inkscape:zoom="5.6679028"
     inkscape:cx="33.96318"
     inkscape:cy="79.482662"
     inkscape:window-x="0"
     inkscape:window-y="0"
     inkscape:window-maximized="1"
     inkscape:current-layer="g36"
     inkscape:showpageshadow="2"
     inkscape:pagecheckerboard="0"
     inkscape:deskcolor="#d1d1d1" />
  <defs
     id="defs16">
    <linearGradient
       xlink:href="#a"
       id="b"
       gradientUnits="userSpaceOnUse"
       gradientTransform="matrix(.23214 0 0 .32895 -8.567 435.827)"
       x1="88.596"
       y1="-449.394"
       x2="536.596"
       y2="-449.394" />
    <linearGradient
       id="a">
      <stop
         offset="0"
         stop-color="#acabae"
         id="stop3" />
      <stop
         offset=".038"
         stop-color="#f7f7f7"
         id="stop5" />
      <stop
         offset=".077"
         stop-color="#deddda"
         id="stop7" />
      <stop
         offset=".923"
         stop-color="#b0afad"
         id="stop9" />
      <stop
         offset=".962"
         stop-color="#c0bfbc"
         id="stop11" />
      <stop
         offset="1"
         stop-color="#77767b"
         id="stop13" />
    </linearGradient>
  </defs>
  <g
     transform="translate(0 -172)"
     id="g36">
    <rect
       ry="8"
       rx="8"
       y="188"
       x="12"
       height="100"
       width="104"
       style="marker:none"
       fill="url(#b)"
       id="rect18" />
    <rect
       style="marker:none"
       width="104"
       height="100"
       x="12"
       y="184"
       rx="8"
       ry="8"
       fill="#fff"
       id="rect20" />
    <g
       transform="translate(-104 -365.5)"
       color="#000"
       id="g26">
      <rect
         ry="4"
         rx="4"
         y="625.5"
         x="128"
         height="8"
         width="80"
         style="marker:none"
         overflow="visible"
         fill="#e1dedb"
         id="rect22" />
      <rect
         ry="4"
         rx="4"
         y="625.5"
         x="128"
         height="8"
         width="48.125"
         style="marker:none;fill:#6f8396;fill-opacity:1"
         overflow="visible"
         fill="#3584e4"
         id="rect24" />
    </g>
    <g
       id="g1"
       transform="matrix(0.20461811,0,0,0.20461811,52.883941,173.93463)">
      <path
         d="M 191,236 A 127,127 0 0 1 64,363 127,127 0 0 1 -63,236 127,127 0 0 1 64,109 127,127 0 0 1 191,236"
         style="fill:#6c7ae9;fill-rule:evenodd;stroke-width:2.20571"
         id="path1" />
      <path
         d="M 191,236 A 127,127 0 0 1 64,363 127,127 0 0 1 -63,236 127,127 0 0 1 64,109 127,127 0 0 1 191,236"
         style="fill:#000000;fill-rule:evenodd;stroke-width:2.20571"
         id="path1-9" />
      <path
         id="path1-9-2"
         style="fill:#6c7ae9;fill-rule:evenodd;stroke-width:2.20571"
         d="m 64,109 a 127,127 0 0 0 -127,127 127,127 0 0 0 127,127 127,127 0 0 0 1.00977,-0.004 c -0.48674,-4.4487 -0.57785,-12.11072 -0.0762,-16.08398 0.61888,-4.90167 0.65672,-4.21798 -0.42578,-7.90625 -0.53206,-1.81286 -0.96049,-4.73593 -1.09961,-7.51563 -0.20037,-4.00308 -0.0916,-5.11566 0.89844,-9.27539 0.89424,-3.75712 1.06669,-5.23809 0.84375,-7.21875 -0.15428,-1.3705 -0.42202,-2.49023 -0.5957,-2.49023 -0.17367,0 -0.67437,0.71377 -1.11133,1.58594 -1.01708,2.03023 -1.85218,1.88181 -2.47461,-0.43946 -1.18551,-4.42136 -6.13921,-13.10521 -11.13672,-19.51953 l -2.14258,-2.74804 -0.33398,1.5625 c -0.18418,0.85888 -0.44077,2.05017 -0.57031,2.64843 -0.4279,1.97606 -0.95875,1.55218 -5.4961,-4.38672 -4.95079,-6.48003 -11.546908,-11.92782 -15.199216,-12.55468 -1.856845,-0.3187 -5.558677,-1.69532 -8.970703,-3.33399 -2.017587,-0.96899 -4.114625,-2.38108 -10.742188,-7.23828 -2.281257,-1.67186 -4.589064,-3.84531 -5.962891,-5.61328 -0.57032,-0.73397 -0.902529,-1.161 -1.015624,-1.12305 -0.148497,0.0634 0.10281,0.99536 0.689453,3.20118 0.445692,1.67581 0.209538,1.65911 -4.601563,-0.32618 -5.723081,-2.3616 -6.220915,-2.69838 -7.259766,-4.91211 l -0.925781,-1.97656 -0.298828,1.67969 c -0.249169,1.40313 -0.454321,1.67773 -1.25,1.67773 -1.366147,0 -1.891996,-0.80537 -2.414062,-3.70507 -0.431139,-2.39464 -0.388087,-2.73426 0.658203,-5.27149 0.614957,-1.49125 1.117187,-2.81543 1.117187,-2.94336 v -0.002 -0.002 -0.002 c -7.03e-4,-0.002 -0.0045,-0.008 -0.0059,-0.01 -0.107195,-0.13731 -1.51196,-0.44691 -3.214844,-0.70508 -8.040908,-1.21857 -17.274917,-4.12311 -22.488281,-7.07227 -6.307478,-3.56784 -8.865642,-6.69053 -11.298828,-13.79101 -2.36719,-6.9079 -2.301129,-9.70994 0.330078,-13.95899 0.606217,-0.97897 1.108688,-1.9898 1.117187,-2.24609 0.0084,-0.25627 0.609471,-0.87964 1.335938,-1.38477 0.726454,-0.50514 2.531026,-1.89726 4.009766,-3.09375 2.562681,-2.07356 10.676818,-6.5671 18.808593,-10.41406 5.049696,-2.38892 11.35902,-4.95173 20.138672,-8.18359 l 7.275391,-2.67774 0.316406,-2.07422 c 0.433005,-2.83613 2.21243,-5.80675 4.189453,-6.99414 1.645635,-0.98835 4.77096,-1.74466 4.316406,-1.04492 -0.134801,0.2075 -0.09469,0.60844 0.08984,0.89258 0.256219,0.39443 0.841793,0.18579 2.474609,-0.88281 2.515377,-1.64618 6.190451,-3.03321 8.03711,-3.03321 h 1.310547 l -1.164063,1.15625 c -1.140926,1.13301 -3.063914,6.35938 -2.339844,6.35938 0.187489,0 3.309443,-0.81439 6.9375,-1.8086 7.300838,-2.00064 22.826693,-5.70144 23.933603,-5.70507 0.38877,-0.001 0.85619,-0.23632 1.03906,-0.52344 0.5359,-0.84145 4.68389,-3.64046 7.60742,-5.13281 3.89338,-1.98746 7.48242,-2.38896 7.48242,-0.83594 0,0.49134 0.19522,0.48137 1.3086,-0.0664 1.2736,-0.62661 9.08593,-1.23618 9.08593,-0.70899 0,0.13004 -0.66168,0.81453 -1.4707,1.51954 l -1.4707,1.28125 4.48437,-0.73047 c 12.53983,-2.0446 18.40526,-2.66296 27.76758,-2.92383 9.92203,-0.27648 12.79891,-0.007 16.83594,1.57226 0.80032,0.31331 2.47551,0.76331 3.72265,1 3.24579,0.61603 7.91993,2.01245 7.91993,2.36524 0,0.16509 -1.26319,0.64362 -2.80664,1.06445 l -2.80664,0.76563 3.56835,0.66797 c 1.96273,0.36776 4.76917,1.02436 6.23633,1.45898 4.127,1.22253 25.32617,12.26926 25.32617,13.19727 0,0.38812 -13.44631,0.10433 -16.00781,-0.3379 -0.0804,-0.0139 -0.13053,-0.0109 -0.15039,0.004 h -0.002 l -0.002,0.002 v 0.002 l -0.002,0.002 v 0.002 l -0.002,0.002 v 0.002 0.002 c -0.0179,0.16552 1.46439,1.031 3.69336,2.13477 2.62957,1.30215 5.16594,2.37549 5.63672,2.38672 0.47077,0.0118 1.21125,0.26948 1.64648,0.57226 0.6732,0.46835 0.70959,0.645 0.23633,1.1875 -0.30594,0.35074 -1.14108,0.78549 -1.85547,0.9668 -1.27253,0.32296 -1.21566,0.36971 2.85742,2.30859 2.28657,1.08847 5.23405,2.39651 6.54883,2.90625 1.30451,0.50577 2.374,1.04416 2.39063,1.19922 0,0.37151 -8.09841,1.55826 -12.57227,1.8418 l -3.63477,0.23047 1.61719,1.66797 c 2.7282,2.81591 3.68983,4.56914 4.98633,9.0918 0.68601,2.39299 1.53475,5.24236 1.88672,6.33008 0.35196,1.08773 0.64205,2.0218 0.64453,2.07617 0.0192,0.42099 -1.46503,-0.12105 -3.44922,-1.25781 -1.23016,-0.70476 -2.25163,-1.21139 -2.35937,-1.17774 l -0.002,0.002 h -0.002 l -0.002,0.002 v 0.002 l -0.002,0.002 v 0.002 c 0,0.10312 0.73627,1.47017 1.63672,3.03711 1.81812,3.16394 1.98517,3.89472 4.37305,19.28125 1.16213,7.48812 1.80151,10.34745 3.31837,14.8164 l 1.88086,5.53711 2.35351,0.96289 c 1.94763,0.7972 5.53929,3.19286 13.18555,8.79297 0.48748,0.35703 1.51742,0.57961 4.05469,0.79297 A 127,127 0 0 0 191,236 127,127 0 0 0 64,109 Z" />
    </g>
  </g>
</svg>
