<?xml version="1.0" encoding="UTF-8" standalone="no"?>
<svg
   width="128"
   height="128"
   version="1.0"
   id="svg38"
   sodipodi:docname="installer-deinonychus.svg"
   inkscape:version="1.4.2 (ebf0e940d0, 2025-05-08)"
   xmlns:inkscape="http://www.inkscape.org/namespaces/inkscape"
   xmlns:sodipodi="http://sodipodi.sourceforge.net/DTD/sodipodi-0.dtd"
   xmlns:xlink="http://www.w3.org/1999/xlink"
   xmlns="http://www.w3.org/2000/svg"
   xmlns:svg="http://www.w3.org/2000/svg"
   xmlns:rdf="http://www.w3.org/1999/02/22-rdf-syntax-ns#"
   xmlns:cc="http://creativecommons.org/ns#"
   xmlns:dc="http://purl.org/dc/elements/1.1/">
  <metadata
     id="metadata42">
    <rdf:RDF>
      <cc:Work
         rdf:about="">
        <dc:format>image/svg+xml</dc:format>
        <dc:type
           rdf:resource="http://purl.org/dc/dcmitype/StillImage" />
      </cc:Work>
    </rdf:RDF>
  </metadata>
  <sodipodi:namedview
     pagecolor="#ffffff"
     bordercolor="#666666"
     borderopacity="1"
     objecttolerance="10"
     gridtolerance="10"
     guidetolerance="10"
     inkscape:pageopacity="0"
     inkscape:pageshadow="2"
     inkscape:window-width="1440"
     inkscape:window-height="872"
     id="namedview40"
     showgrid="false"
     inkscape:zoom="5.6679028"
     inkscape:cx="29.199513"
     inkscape:cy="71.896081"
     inkscape:window-x="0"
     inkscape:window-y="0"
     inkscape:window-maximized="1"
     inkscape:current-layer="g36"
     inkscape:showpageshadow="2"
     inkscape:pagecheckerboard="0"
     inkscape:deskcolor="#d1d1d1" />
  <defs
     id="defs16">
    <linearGradient
       xlink:href="#a"
       id="b"
       gradientUnits="userSpaceOnUse"
       gradientTransform="matrix(.23214 0 0 .32895 -8.567 435.827)"
       x1="88.596"
       y1="-449.394"
       x2="536.596"
       y2="-449.394" />
    <linearGradient
       id="a">
      <stop
         offset="0"
         stop-color="#acabae"
         id="stop3" />
      <stop
         offset=".038"
         stop-color="#f7f7f7"
         id="stop5" />
      <stop
         offset=".077"
         stop-color="#deddda"
         id="stop7" />
      <stop
         offset=".923"
         stop-color="#b0afad"
         id="stop9" />
      <stop
         offset=".962"
         stop-color="#c0bfbc"
         id="stop11" />
      <stop
         offset="1"
         stop-color="#77767b"
         id="stop13" />
    </linearGradient>
  </defs>
  <g
     transform="translate(0 -172)"
     id="g36">
    <rect
       ry="8"
       rx="8"
       y="188"
       x="12"
       height="100"
       width="104"
       style="marker:none"
       fill="url(#b)"
       id="rect18" />
    <rect
       style="marker:none"
       width="104"
       height="100"
       x="12"
       y="184"
       rx="8"
       ry="8"
       fill="#fff"
       id="rect20" />
    <g
       transform="translate(-104 -365.5)"
       color="#000"
       id="g26">
      <rect
         ry="4"
         rx="4"
         y="625.5"
         x="128"
         height="8"
         width="80"
         style="marker:none"
         overflow="visible"
         fill="#e1dedb"
         id="rect22" />
      <rect
         ry="4"
         rx="4"
         y="625.5"
         x="128"
         height="8"
         width="48.125"
         style="marker:none;fill:#6f8396;fill-opacity:1"
         overflow="visible"
         fill="#3584e4"
         id="rect24" />
    </g>
    <g
       id="g1"
       transform="matrix(0.20455851,0,0,0.20455851,42.038585,178.64597)"
       style="display:inline">
      <path
         d="M 244,213 A 127,127 0 0 1 117,340 127,127 0 0 1 -10,213 127,127 0 0 1 117,86 127,127 0 0 1 244,213"
         style="fill:#6c7ae9;fill-rule:evenodd;stroke-width:2.20571"
         id="path1" />
      <path
         d="m 119,151.266 c -0.525,-0.014 -1.525,0.492 -3.241,1.474 -2.464,1.41 -2.795,1.914 -2.984,4.547 -0.242,3.355 0.224,3.131 -9.143,4.375 -14.071,1.869 -32.889,7.3 -41.604,12.008 -3.727,2.014 -4.82,3.073 -7.164,6.94 -2.239,3.692 -2.821,5.378 -3.058,8.855 -0.28,4.1 -0.111,4.652 3.707,12.213 4.698,9.304 7.075,12.307 10.187,12.875 1.236,0.225 6.145,0.14 10.909,-0.19 9.803,-0.678 10.635,-0.347 10.263,4.09 -0.25,2.998 0.93,3.487 2.752,1.14 0.764,-0.982 1.54,-1.786 1.725,-1.786 0.69,0 2.05,4.28 2.498,7.867 0.482,3.862 0.819,4.12 4.039,3.08 1.386,-0.448 1.634,-0.116 2.646,3.578 0.615,2.24 1.245,4.48 1.403,4.977 0.223,0.702 0.654,0.657 1.953,-0.206 1.618,-1.073 1.69,-1.04 2.437,1.133 1.117,3.246 0.983,4.06 -0.605,3.639 -0.874,-0.232 -1.535,0.05 -1.807,0.768 -0.578,1.527 -1.422,1.43 -5.422,-0.625 -3.91,-2.01 -5.587,-2.244 -5.002,-0.7 0.571,1.508 -0.608,1.336 -7.543,-1.097 -3.37,-1.183 -9.422,-2.936 -13.449,-3.895 -4.027,-0.959 -11.578,-3.006 -16.781,-4.547 -8.27,-2.45 -10.188,-2.775 -15.244,-2.595 l -5.785,0.203 2.425,1.578 2.426,1.576 -3.465,0.057 c -6.579,0.107 -11.599,2.66 -7.931,4.035 1.68,0.63 -1.779,1.54 -21.864,5.756 a 604,604 0 0 0 -12.214,2.73 127,127 0 0 0 122.89,94.955 127,127 0 0 0 37.694,-5.723 68,68 0 0 1 2.742,-2.867 c 8.76,-8.688 17.532,-21.25 23.265,-33.314 2.26,-4.754 3.346,-6.452 3.372,-5.264 0.033,1.592 0.139,1.525 1.119,-0.703 0.594,-1.351 1.627,-5.14 2.297,-8.418 0.934,-4.578 1.334,-5.587 1.722,-4.348 0.278,0.888 0.86,1.494 1.293,1.348 1.253,-0.423 1.72,-4.102 2.51,-19.754 0.407,-8.073 0.897,-14.837 1.088,-15.031 0.191,-0.194 0.358,0.252 0.37,0.992 0.023,1.368 1.498,3.803 2.306,3.803 h 0.004 l 0.006,-0.002 0.006,-0.002 c 0.236,-0.142 0.427,-3.203 0.427,-6.924 0,-5.654 -0.381,-8.23 -2.078,-14.016 -2.53,-8.629 -2.648,-10.051 -0.642,-7.736 l 1.433,1.658 -0.38,-3.861 c -0.251,-2.531 -1.224,-5.43 -2.827,-8.422 -1.344,-2.51 -4.57,-8.984 -7.168,-14.389 -2.598,-5.405 -6.034,-12.16 -7.636,-15.011 -2.845,-5.064 -3.249,-6.761 -1.198,-5.037 0.56,0.47 1.685,0.753 2.498,0.627 1.448,-0.225 1.439,-0.282 -0.437,-2.711 -1.054,-1.365 -3.456,-3.734 -5.336,-5.264 l -3.418,-2.783 3.027,-0.225 3.03,-0.226 -2.772,-1.739 c -3.575,-2.243 -11.35,-5.88 -12.568,-5.88 -1.184,0 -1.26,-1.396 -0.078,-1.426 0.484,-0.013 0.254,-0.508 -0.52,-1.121 -1.113,-0.883 -2.596,-1.025 -7.527,-0.721 -5.29,0.326 -5.963,0.246 -4.852,-0.576 0.71,-0.526 1.067,-1.182 0.793,-1.46 -0.274,-0.277 -4.016,-0.516 -8.314,-0.529 -6.086,-0.018 -8.775,0.3 -12.147,1.428 l -4.33,1.45 v -2.032 c 0,-2.516 -0.444,-2.537 -2.918,-0.137 l -1.955,1.897 0.443,-2.246 c 0.28,-1.414 0.296,-2.098 -0.298,-2.114 z"
         style="fill:#000000;fill-rule:evenodd;stroke-width:2.20571"
         id="path2" />
    </g>
  </g>
</svg>
